<svg width="40" height="42" viewBox="0 0 40 42" fill="none" xmlns="http://www.w3.org/2000/svg">
<path d="M9.15626 8.86657C8.63543 7.5374 8.65626 6.01865 8.88751 4.62907C10.4796 5.1061 11.9748 5.86076 13.3042 6.85824C13.8875 7.30407 14.6521 7.44782 15.3646 7.23324C17.1929 6.68623 19.0917 6.41106 21 6.41657C23.0021 6.41657 24.9042 6.70824 26.6313 7.23115C27.3438 7.44782 28.1083 7.30199 28.6896 6.85615C30.0183 5.8589 31.5128 5.10424 33.1042 4.62699C33.3354 6.01657 33.3542 7.53532 32.8375 8.8624C32.525 9.6624 32.6813 10.5832 33.2708 11.2374C34.7792 12.9103 35.5833 14.8332 35.5833 16.8332C35.5833 21.2374 31.4792 25.5562 24.8875 26.8707C23.2375 27.1999 22.5938 29.277 23.8563 30.4666C24.6667 31.2291 25.1667 32.3041 25.1667 33.4999V39.7499C25.1667 40.3024 25.3862 40.8323 25.7769 41.223C26.1676 41.6137 26.6975 41.8332 27.25 41.8332C27.8025 41.8332 28.3324 41.6137 28.7231 41.223C29.1138 40.8323 29.3333 40.3024 29.3333 39.7499V33.4999C29.3333 32.3124 29.0833 31.1832 28.6375 30.1603C34.9229 27.9791 39.75 23.0687 39.75 16.8332C39.75 14.027 38.7417 11.4478 37.0688 9.2874C37.5063 7.57907 37.4667 5.85824 37.3 4.5374C37.1521 3.35407 36.9458 1.80407 36.1125 0.87907C34.8729 -0.493847 32.8208 0.314487 31.3625 0.812403C29.7981 1.34175 28.3098 2.07367 26.9354 2.98949C24.9959 2.49451 23.0017 2.24603 21 2.2499C18.9292 2.2499 16.9313 2.51032 15.0604 2.99157C13.6861 2.07573 12.1977 1.34382 10.6333 0.814487C9.17501 0.314487 7.12084 -0.493847 5.88126 0.87907C5.03126 1.82074 4.85418 3.24782 4.70209 4.46032L4.69168 4.53949C4.52501 5.8624 4.48751 7.58532 4.92501 9.29574C3.25834 11.4541 2.25001 14.0291 2.25001 16.8332C2.25001 23.0666 7.07709 27.9791 13.3625 30.1603C12.9076 31.2005 12.6707 32.3229 12.6667 33.4582L12.3167 33.5291C10.8229 33.7353 9.86668 33.5499 9.21668 33.2749C7.63334 32.6041 6.81668 30.9145 5.82084 29.6228C5.20001 28.8207 4.29584 27.8187 2.90834 27.3562C2.64871 27.2697 2.37459 27.2352 2.10163 27.2547C1.82868 27.2742 1.56223 27.3473 1.31751 27.4697C0.823276 27.717 0.447527 28.1505 0.272927 28.6749C0.0983258 29.1993 0.139175 29.7715 0.386489 30.2657C0.633802 30.76 1.06732 31.1357 1.59168 31.3103C2.75418 31.6978 3.55834 33.6895 4.29584 34.5728C5.07293 35.5062 6.10626 36.4812 7.58751 37.1103C9.00834 37.7145 10.6771 37.9291 12.6667 37.6853V39.7499C12.6667 40.3024 12.8862 40.8323 13.2769 41.223C13.6676 41.6137 14.1975 41.8332 14.75 41.8332C15.3025 41.8332 15.8324 41.6137 16.2231 41.223C16.6138 40.8323 16.8333 40.3024 16.8333 39.7499V33.4999C16.8333 32.3041 17.3333 31.2291 18.1438 30.4666C19.4083 29.2749 18.7625 27.1999 17.1125 26.8707C10.5188 25.5562 6.41668 21.2374 6.41668 16.8332C6.41668 14.8374 7.21876 12.9145 8.72501 11.2416C9.31459 10.5874 9.46876 9.66657 9.15626 8.86657Z" fill="#FE3333"/>
</svg>
