<svg width="45" height="45" viewBox="0 0 45 45" fill="none" xmlns="http://www.w3.org/2000/svg">
<path d="M16.65 42H28.35C38.1 42 42 38.1 42 28.35V16.65C42 6.9 38.1 3 28.35 3H16.65C6.9 3 3 6.9 3 16.65V28.35C3 38.1 6.9 42 16.65 42Z" stroke="#FE3333" stroke-width="5" stroke-linecap="round" stroke-linejoin="round"/>
<path d="M22.5 29C23.3536 29 24.1988 28.8319 24.9874 28.5052C25.7761 28.1786 26.4926 27.6998 27.0962 27.0962C27.6998 26.4926 28.1786 25.7761 28.5052 24.9874C28.8319 24.1988 29 23.3536 29 22.5C29 21.6464 28.8319 20.8012 28.5052 20.0126C28.1786 19.2239 27.6998 18.5074 27.0962 17.9038C26.4926 17.3002 25.7761 16.8214 24.9874 16.4948C24.1988 16.1681 23.3536 16 22.5 16C20.7761 16 19.1228 16.6848 17.9038 17.9038C16.6848 19.1228 16 20.7761 16 22.5C16 24.2239 16.6848 25.8772 17.9038 27.0962C19.1228 28.3152 20.7761 29 22.5 29Z" stroke="#FE3333" stroke-width="5" stroke-linecap="round" stroke-linejoin="round"/>
<path d="M33 13H34" stroke="#FE3333" stroke-width="5" stroke-linecap="round" stroke-linejoin="round"/>
</svg>
