<svg width="384" height="384" viewBox="0 0 384 384" fill="none" xmlns="http://www.w3.org/2000/svg">
<rect width="384" height="384" rx="25" fill="white"/>
<path d="M231.432 195.45C235.041 199.211 238.09 203.423 240.548 207.959C250.176 225.734 242.643 246.804 232.588 264.342L196.042 328.082C193.811 331.973 188.189 331.973 185.958 328.082L149.412 264.342C139.357 246.804 131.824 225.734 141.452 207.959C143.91 203.423 146.959 199.211 150.568 195.45C161.292 184.277 175.835 178 191 178C206.165 178 220.708 184.277 231.432 195.45Z" fill="#FE3333"/>
<path d="M209 228.5C209 239.27 200.941 248 191 248C181.059 248 173 239.27 173 228.5C173 217.73 181.059 209 191 209C200.941 209 209 217.73 209 228.5Z" fill="white"/>
<path d="M310 317V172.615C310 170.583 309.117 168.651 307.58 167.321L197.339 71.9366C194.723 69.6728 190.845 69.66 188.214 71.9064L74 169.415" stroke="#FE3333" stroke-width="40" stroke-linecap="round" stroke-linejoin="round"/>
</svg>
